<?xml version="1.0" standalone="no"?>
<!DOCTYPE svg PUBLIC "-//W3C//DTD SVG 20010904//EN"
 "http://www.w3.org/TR/2001/REC-SVG-20010904/DTD/svg10.dtd">
<svg version="1.0" xmlns="http://www.w3.org/2000/svg"
 width="295.000000pt" height="509.000000pt" viewBox="0 0 295.000000 509.000000"
 preserveAspectRatio="xMidYMid meet">

<g transform="translate(0.000000,509.000000) scale(0.100000,-0.100000)"
fill="#000000" stroke="none">
<path d="M1122 5074 c-14 -10 -22 -26 -22 -44 0 -58 10 -60 375 -60 365 0 375
2 375 60 0 58 -10 60 -375 60 -283 0 -334 -2 -353 -16z"/>
<path d="M16 4768 c-14 -20 -16 -145 -16 -1140 0 -1105 0 -1118 20 -1138 19
-19 33 -20 355 -20 l335 0 9 -24 c12 -31 29 -36 118 -36 56 0 74 -3 71 -12 -3
-7 -42 -138 -88 -290 l-84 -277 -143 -3 c-156 -3 -176 -10 -175 -63 0 -44 14
-50 151 -55 l128 -5 -249 -815 c-226 -740 -247 -817 -235 -840 16 -32 66 -39
89 -13 9 10 125 376 257 813 133 437 247 810 252 828 l11 32 294 0 294 0 0
-817 c0 -637 3 -824 13 -843 15 -31 66 -39 91 -15 14 15 16 93 16 846 l0 829
298 0 298 0 248 -818 c137 -449 253 -826 259 -837 13 -26 27 -35 54 -35 28 0
53 25 53 54 0 16 -269 911 -486 1619 -5 16 5 17 119 17 107 0 126 2 140 18 21
23 22 52 3 78 -13 17 -29 19 -160 22 -80 2 -146 5 -146 6 0 1 -38 128 -85 282
-47 153 -85 282 -85 287 0 4 35 7 78 7 64 0 82 4 95 18 10 10 17 24 17 30 0 9
87 12 340 12 327 0 341 1 360 20 20 20 20 33 20 1138 0 995 -2 1120 -16 1140
l-15 22 -1444 0 -1444 0 -15 -22z m2814 -1133 l0 -1045 -1355 0 -1355 0 0
1045 0 1045 1355 0 1355 0 0 -1045z m-1420 -1499 c0 -151 3 -281 6 -290 6 -14
-23 -16 -276 -16 -221 0 -281 3 -278 13 3 6 42 137 88 290 l84 277 188 0 188
0 0 -274z m582 14 c43 -140 82 -270 87 -287 l9 -33 -279 0 -279 0 0 290 0 290
192 -2 192 -3 78 -255z"/>
</g>
</svg>
