<?xml version="1.0" standalone="no"?>
<!DOCTYPE svg PUBLIC "-//W3C//DTD SVG 20010904//EN"
 "http://www.w3.org/TR/2001/REC-SVG-20010904/DTD/svg10.dtd">
<svg version="1.0" xmlns="http://www.w3.org/2000/svg"
 width="256.000000pt" height="150.000000pt" viewBox="0 0 256.000000 150.000000"
 preserveAspectRatio="xMidYMid meet">

<g transform="translate(0.000000,150.000000) scale(0.100000,-0.100000)"
fill="#000000" stroke="none">
<path d="M1026 1485 c-19 -19 -46 -142 -49 -220 -2 -58 -1 -60 23 -60 23 0 25
5 41 103 9 57 19 106 23 109 3 3 47 -12 98 -32 234 -95 656 -222 833 -251 61
-10 111 -19 113 -20 7 -4 -90 -210 -142 -302 -130 -232 -280 -398 -421 -468
-74 -36 -85 -39 -167 -39 -89 0 -113 -9 -102 -38 13 -36 157 -34 257 3 166 62
349 259 499 536 88 162 162 336 151 354 -7 10 -35 17 -94 22 -175 14 -726 177
-974 288 -78 35 -70 34 -89 15z"/>
<path d="M1260 1220 c-96 -63 -805 -190 -1062 -190 -40 0 -70 -5 -74 -12 -22
-35 23 -203 107 -400 46 -108 49 -119 35 -140 -8 -13 -20 -42 -27 -66 -21 -72
-85 -98 -165 -67 -50 19 -74 15 -74 -14 0 -38 117 -71 189 -51 52 14 90 53
111 114 l16 48 43 -74 c120 -201 248 -317 390 -353 218 -56 427 115 512 420
12 44 23 81 24 83 1 1 28 -7 61 -19 109 -38 292 -11 302 45 7 35 -13 39 -77
16 -71 -26 -157 -24 -229 5 -43 18 -44 18 -38 59 3 23 8 123 12 224 4 100 9
182 13 182 3 0 15 -12 27 -27 18 -23 26 -26 40 -17 32 19 27 35 -25 85 -39 37
-51 56 -51 78 0 40 -17 81 -32 81 -7 0 -20 -5 -28 -10z m-3 -325 c-5 -227 -19
-334 -59 -463 -31 -100 -84 -199 -139 -257 -106 -112 -235 -139 -363 -76 -81
39 -198 161 -275 285 -62 100 -60 116 10 98 45 -11 69 -3 69 24 0 23 -40 37
-106 37 l-62 0 -25 56 c-61 135 -137 357 -125 365 2 1 68 8 148 15 289 25 676
90 850 144 66 20 75 21 79 8 2 -9 1 -115 -2 -236z"/>
<path d="M940 891 c-79 -16 -138 -67 -119 -103 13 -25 28 -23 61 9 22 21 40
28 86 31 52 4 61 1 90 -23 36 -30 66 -30 70 1 4 27 -45 69 -96 84 -41 11 -41
11 -92 1z"/>
<path d="M505 808 c-46 -16 -91 -54 -105 -88 -11 -27 -11 -33 4 -48 16 -16 19
-14 54 25 55 63 112 78 178 47 41 -20 67 -12 62 18 -6 47 -116 73 -193 46z"/>
<path d="M1017 402 c-41 -42 -110 -73 -185 -82 -75 -10 -112 -4 -189 30 -57
24 -83 22 -83 -8 0 -14 20 -28 73 -53 64 -30 81 -33 157 -33 99 1 145 14 218
62 66 43 90 76 72 97 -18 22 -33 19 -63 -13z"/>
<path d="M1560 997 c-29 -15 -38 -52 -15 -61 9 -3 25 -1 35 4 28 15 60 12 108
-10 34 -15 47 -29 63 -65 16 -37 25 -46 42 -43 44 6 27 79 -30 132 -52 48
-152 69 -203 43z"/>
<path d="M2117 810 c-49 -9 -65 -25 -51 -48 9 -14 23 -16 75 -14 80 4 92 -5
121 -88 27 -75 62 -105 136 -116 64 -10 156 21 160 54 5 31 -19 37 -72 17 -84
-32 -146 -4 -170 78 -9 28 -22 59 -29 68 -33 43 -102 62 -170 49z"/>
</g>
</svg>
