<?xml version="1.0" standalone="no"?>
<!DOCTYPE svg PUBLIC "-//W3C//DTD SVG 20010904//EN"
 "http://www.w3.org/TR/2001/REC-SVG-20010904/DTD/svg10.dtd">
<svg version="1.0" xmlns="http://www.w3.org/2000/svg"
 width="170.000000pt" height="150.000000pt" viewBox="0 0 170.000000 150.000000"
 preserveAspectRatio="xMidYMid meet">

<g transform="translate(0.000000,150.000000) scale(0.100000,-0.100000)"
fill="#000000" stroke="none">
<path d="M1567 1493 c-4 -3 -7 -21 -7 -40 0 -27 -6 -37 -32 -53 -18 -11 -51
-25 -72 -31 -58 -16 -142 -103 -153 -160 -22 -105 44 -198 152 -214 81 -13
189 57 222 143 38 98 11 248 -59 328 -31 35 -39 39 -51 27z m78 -248 c0 -96
-22 -141 -89 -180 -83 -49 -176 -21 -205 61 -28 81 11 143 127 200 45 22 93
50 105 63 l22 22 20 -43 c15 -32 20 -64 20 -123z"/>
<path d="M655 1469 c-141 -24 -292 -99 -400 -201 -112 -104 -183 -222 -227
-375 -31 -107 -30 -292 1 -408 35 -134 103 -259 185 -341 61 -61 83 -76 156
-104 107 -43 211 -46 303 -11 112 44 149 96 167 237 6 49 18 110 26 136 18 54
72 108 109 108 l25 0 -26 -57 c-67 -147 -94 -283 -56 -283 45 0 189 131 262
238 34 49 36 51 70 44 87 -17 174 9 223 67 63 75 103 210 91 304 -5 37 -10 47
-23 45 -13 -3 -17 -22 -22 -94 -14 -187 -115 -304 -244 -280 l-35 7 24 38 c59
94 176 347 176 383 0 13 -6 18 -17 16 -11 -2 -32 -38 -58 -95 -25 -58 -46 -93
-55 -93 -18 0 -90 47 -90 59 0 5 25 51 55 102 44 74 52 95 43 107 -10 12 -15
10 -34 -11 -21 -25 -145 -234 -220 -374 -38 -69 -40 -71 -84 -77 -105 -14
-161 -93 -180 -256 -15 -132 -38 -177 -112 -214 -146 -72 -349 -24 -469 113
-56 63 -124 207 -150 316 -30 129 -24 295 17 415 80 239 296 434 538 486 195
43 412 6 562 -96 52 -35 74 -38 74 -11 0 21 -78 74 -165 111 -119 51 -305 72
-440 49z m581 -734 c20 -14 43 -25 50 -25 8 0 14 -2 14 -5 0 -13 -97 -178
-106 -182 -7 -2 -37 3 -68 12 l-57 17 19 31 c11 18 37 65 58 105 21 39 42 72
46 72 4 0 24 -11 44 -25z m-98 -249 l33 -12 -44 -59 c-48 -65 -154 -175 -168
-175 -20 0 3 75 64 213 29 63 27 63 115 33z"/>
<path d="M723 1320 c-85 -51 -85 -185 0 -235 39 -23 108 -24 142 -1 38 25 65
75 65 120 0 104 -118 170 -207 116z m129 -50 c63 -49 22 -160 -58 -160 -29 0
-71 29 -83 58 -35 84 69 159 141 102z"/>
<path d="M322 1180 c-67 -41 -90 -148 -44 -210 51 -68 121 -86 193 -50 54 28
79 72 79 139 0 50 -3 57 -44 97 -40 41 -47 44 -97 44 -37 0 -65 -7 -87 -20z
m145 -47 c12 -8 27 -30 33 -48 35 -106 -90 -183 -169 -104 -91 90 27 222 136
152z"/>
<path d="M1043 1175 c-39 -17 -53 -42 -53 -95 0 -91 106 -135 170 -71 36 36
46 73 29 112 -14 34 -62 69 -94 69 -11 -1 -34 -7 -52 -15z m89 -52 c22 -20 23
-56 2 -77 -53 -53 -137 20 -87 76 20 22 61 23 85 1z"/>
<path d="M232 792 c-132 -71 -68 -279 80 -259 76 10 122 65 120 144 -1 101
-109 163 -200 115z m129 -61 c61 -61 21 -150 -67 -151 -68 0 -111 69 -79 130
30 59 98 69 146 21z"/>
<path d="M437 421 c-42 -27 -59 -57 -59 -106 -2 -74 50 -128 121 -128 75 0
131 56 131 131 0 92 -116 154 -193 103z m93 -32 c59 -21 72 -100 22 -139 -38
-30 -88 -22 -119 19 -28 36 -5 103 41 121 11 5 21 9 22 9 1 1 16 -4 34 -10z"/>
</g>
</svg>
