<?xml version="1.0" standalone="no"?>
<!DOCTYPE svg PUBLIC "-//W3C//DTD SVG 20010904//EN"
 "http://www.w3.org/TR/2001/REC-SVG-20010904/DTD/svg10.dtd">
<svg version="1.0" xmlns="http://www.w3.org/2000/svg"
 width="137.000000pt" height="150.000000pt" viewBox="0 0 137.000000 150.000000"
 preserveAspectRatio="xMidYMid meet">

<g transform="translate(0.000000,150.000000) scale(0.100000,-0.100000)"
fill="#000000" stroke="none">
<path d="M413 1484 c-6 -16 12 -34 35 -34 19 0 27 31 11 41 -21 13 -39 11 -46
-7z"/>
<path d="M499 1458 c-1 -7 0 -21 1 -31 2 -26 -14 -42 -85 -81 -130 -73 -170
-194 -94 -281 62 -70 165 -83 236 -29 55 42 86 119 81 202 -4 77 -41 167 -84
207 -29 27 -53 33 -55 13z m73 -125 c32 -71 30 -157 -5 -216 -33 -56 -52 -67
-109 -67 -52 1 -83 16 -109 56 -48 73 -3 156 116 215 25 12 53 31 62 41 9 10
18 18 20 18 2 0 14 -21 25 -47z"/>
<path d="M1146 1338 c-8 -13 -17 -33 -21 -46 -8 -27 -30 -37 -105 -47 -64 -9
-100 -21 -100 -33 0 -5 -83 -184 -185 -398 -102 -214 -183 -394 -181 -401 10
-26 32 -12 54 32 12 25 26 45 31 45 5 0 61 -25 125 -56 109 -52 153 -62 144
-31 -3 6 -59 39 -126 71 -67 33 -122 63 -122 68 0 8 287 619 294 626 6 6 356
-173 356 -181 0 -5 -82 -177 -181 -383 -166 -341 -191 -404 -161 -404 17 0 28
21 217 414 l187 389 -38 79 -38 78 22 45 c12 25 22 51 22 58 0 10 -157 97
-175 97 -2 0 -11 -10 -19 -22z m94 -63 c47 -24 49 -26 38 -50 -14 -30 -16 -31
-73 -3 -48 23 -51 28 -35 59 13 24 11 24 70 -6z m-50 -95 c46 -23 64 -39 81
-71 11 -23 18 -43 16 -45 -3 -3 -66 26 -141 63 -122 61 -134 69 -109 74 58 13
95 8 153 -21z"/>
<path d="M272 1003 c-66 -97 -181 -346 -230 -503 -49 -154 -54 -270 -13 -270
29 0 106 74 157 152 90 137 244 488 248 563 1 20 -4 30 -14 30 -9 0 -26 -33
-47 -89 -18 -49 -35 -92 -38 -94 -8 -8 -82 17 -94 31 -8 10 1 35 39 101 28 48
48 91 45 97 -11 17 -33 9 -53 -18z m-20 -237 c18 -8 41 -17 50 -20 16 -5 14
-13 -18 -83 -61 -135 -135 -260 -186 -315 l-49 -53 5 55 c9 88 133 430 157
430 5 0 23 -6 41 -14z"/>
<path d="M901 1017 c-6 -6 -11 -15 -11 -19 0 -14 243 -129 264 -126 39 6 26
28 -36 59 -144 73 -206 97 -217 86z"/>
<path d="M472 368 c-17 -23 -52 -97 -52 -113 0 -16 473 -259 493 -252 13 4 67
129 60 140 -7 11 -460 237 -477 237 -7 0 -18 -6 -24 -12z m241 -139 c111 -56
204 -103 206 -105 5 -4 -20 -64 -27 -64 -3 0 -98 46 -213 101 l-207 102 16 33
c8 19 17 34 19 34 2 0 94 -46 206 -101z"/>
</g>
</svg>
